<svg width="110" height="28" viewBox="0 0 110 28" fill="none" xmlns="http://www.w3.org/2000/svg">
<path d="M0.00800003 16.92C0.00800003 14.856 0.392 13.044 1.16 11.484C1.952 9.924 3.02 8.724 4.364 7.884C5.708 7.044 7.208 6.624 8.864 6.624C10.28 6.624 11.516 6.912 12.572 7.488C13.652 8.064 14.48 8.82 15.056 9.756V6.912H21.212V27H15.056V24.156C14.456 25.092 13.616 25.848 12.536 26.424C11.48 27 10.244 27.288 8.828 27.288C7.196 27.288 5.708 26.868 4.364 26.028C3.02 25.164 1.952 23.952 1.16 22.392C0.392 20.808 0.00800003 18.984 0.00800003 16.92ZM15.056 16.956C15.056 15.42 14.624 14.208 13.76 13.32C12.92 12.432 11.888 11.988 10.664 11.988C9.44 11.988 8.396 12.432 7.532 13.32C6.692 14.184 6.272 15.384 6.272 16.92C6.272 18.456 6.692 19.68 7.532 20.592C8.396 21.48 9.44 21.924 10.664 21.924C11.888 21.924 12.92 21.48 13.76 20.592C14.624 19.704 15.056 18.492 15.056 16.956ZM31.8216 0.36V27H25.6656V0.36H31.8216ZM42.4388 9.756C43.0148 8.82 43.8428 8.064 44.9228 7.488C46.0028 6.912 47.2388 6.624 48.6308 6.624C50.2868 6.624 51.7868 7.044 53.1308 7.884C54.4748 8.724 55.5308 9.924 56.2988 11.484C57.0908 13.044 57.4868 14.856 57.4868 16.92C57.4868 18.984 57.0908 20.808 56.2988 22.392C55.5308 23.952 54.4748 25.164 53.1308 26.028C51.7868 26.868 50.2868 27.288 48.6308 27.288C47.2148 27.288 45.9788 27.012 44.9228 26.46C43.8668 25.884 43.0388 25.128 42.4388 24.192V27H36.2828V0.36H42.4388V9.756ZM51.2228 16.92C51.2228 15.384 50.7908 14.184 49.9268 13.32C49.0868 12.432 48.0428 11.988 46.7948 11.988C45.5708 11.988 44.5268 12.432 43.6628 13.32C42.8228 14.208 42.4028 15.42 42.4028 16.956C42.4028 18.492 42.8228 19.704 43.6628 20.592C44.5268 21.48 45.5708 21.924 46.7948 21.924C48.0188 21.924 49.0628 21.48 49.9268 20.592C50.7908 19.68 51.2228 18.456 51.2228 16.92ZM79.6524 16.632C79.6524 17.208 79.6164 17.808 79.5444 18.432H65.6124C65.7084 19.68 66.1044 20.64 66.8004 21.312C67.5204 21.96 68.3964 22.284 69.4284 22.284C70.9644 22.284 72.0324 21.636 72.6324 20.34H79.1844C78.8484 21.66 78.2364 22.848 77.3484 23.904C76.4844 24.96 75.3924 25.788 74.0724 26.388C72.7524 26.988 71.2764 27.288 69.6444 27.288C67.6764 27.288 65.9244 26.868 64.3884 26.028C62.8524 25.188 61.6524 23.988 60.7884 22.428C59.9244 20.868 59.4924 19.044 59.4924 16.956C59.4924 14.868 59.9124 13.044 60.7524 11.484C61.6164 9.924 62.8164 8.724 64.3524 7.884C65.8884 7.044 67.6524 6.624 69.6444 6.624C71.5884 6.624 73.3164 7.032 74.8284 7.848C76.3404 8.664 77.5164 9.828 78.3564 11.34C79.2204 12.852 79.6524 14.616 79.6524 16.632ZM73.3524 15.012C73.3524 13.956 72.9924 13.116 72.2724 12.492C71.5524 11.868 70.6524 11.556 69.5724 11.556C68.5404 11.556 67.6644 11.856 66.9444 12.456C66.2484 13.056 65.8164 13.908 65.6484 15.012H73.3524ZM89.056 10.26C89.776 9.156 90.676 8.292 91.756 7.668C92.836 7.02 94.036 6.696 95.356 6.696V13.212H93.664C92.128 13.212 90.976 13.548 90.208 14.22C89.44 14.868 89.056 16.02 89.056 17.676V27H82.9V6.912H89.056V10.26ZM109.494 21.78V27H106.362C104.13 27 102.39 26.46 101.142 25.38C99.8944 24.276 99.2704 22.488 99.2704 20.016V12.024H96.8224V6.912H99.2704V2.016H105.426V6.912H109.458V12.024H105.426V20.088C105.426 20.688 105.57 21.12 105.858 21.384C106.146 21.648 106.626 21.78 107.298 21.78H109.494Z" fill="url(#paint0_linear)"/>
<defs>
<linearGradient id="paint0_linear" x1="3" y1="11" x2="111" y2="27" gradientUnits="userSpaceOnUse">
<stop offset="0.109752" stop-color="#FF3683"/>
<stop offset="1" stop-color="#FF0000"/>
</linearGradient>
</defs>
</svg>
